<svg width='300px'  xmlns="http://www.w3.org/2000/svg" xmlns:xlink="http://www.w3.org/1999/xlink" version="1.1" x="0px" y="0px" viewBox="0 0 100 100" >
	<path fill="#415464" d="M69.827,25.046C67.572,14.58,60.696,9.032,49.938,9C39.11,9,30.629,16.141,30.629,25.258c0,3.675,0.668,6.017,2.102,7.37  l1.206,1.138l0.443-1.599c0.015-0.054,1.428-5.052,4.703-9.387c3.938,6.912,8.567,6.942,11.204,6.96l2.517,0.018l-1.818-1.74  c-0.405-0.388-0.771-0.752-1.102-1.091c3.429,1.51,8.561,3.646,13.319,5.143c2.026,1.12,2.282,3.014,2.452,4.272  c0.098,0.719,0.23,1.704,1.218,1.766l0.834,0.053l0.2-0.811c1.397-5.661,1.941-9.051,1.941-12.093V25.15L69.827,25.046z   M66.84,33.107c-0.503-1.036-1.341-2.084-2.774-2.846l-0.082-0.044l-0.089-0.027c-7.956-2.491-17.038-6.839-17.128-6.882  l-2.872-1.379l1.568,2.773c0.031,0.054,0.607,1.056,2.262,2.854c-2.328-0.434-5.048-1.912-7.57-7.023l-0.667-1.351l-0.986,1.138  c-2.776,3.204-4.482,6.961-5.347,9.24c-0.353-1.051-0.526-2.477-0.526-4.302C32.629,17.263,40.232,11,49.938,11  c9.801,0.029,15.829,4.861,17.912,14.363C67.84,27.478,67.543,29.815,66.84,33.107z"></path>
	<path fill="#415464" d="M78.968,65.052c-4.649-2.927-11.172-4.233-15.557-7.829c-1.224-1.006-2.086-1.867-2.771-2.613c0.008-0.176,0-0.344,0-0.524  c0-0.49-0.074-1.41-0.135-2.246c-2.852,3.392-6.515,5.45-10.539,5.45c-3.738,0-7.191-1.778-9.951-4.747  c-0.028,0.502-0.091,1.211-0.091,1.545c0,0.211,0.013,0.431,0.024,0.638c-0.607,0.608-1.337,1.281-2.295,2.065  c-6.209,5.096-17.448,6.524-20.986,13.471c-0.791,1.552-3.465,10.558-4.089,17.081C24.385,89.027,37.702,90,51.896,90  c5.664,0,11.18-0.166,16.525-0.462C66.285,86.945,65,83.622,65,80C65,72.064,71.168,65.585,78.968,65.052z M63,80  c0,2.691,0.645,5.338,1.852,7.713C60.502,87.903,56.158,88,51.896,88c-12.925,0-25.394-0.797-37.097-2.37  c0.86-6.028,3.029-13.241,3.65-14.461c1.809-3.552,6.284-5.534,11.021-7.633c3.33-1.476,6.772-3.001,9.452-5.2  c0.848-0.694,1.601-1.367,2.294-2.051c2.671,1.955,5.689,3.004,8.75,3.004c3.246,0,6.409-1.169,9.181-3.349l0.02,0.021  c0.92,1.003,1.865,1.895,2.975,2.806c2.733,2.242,6.098,3.617,9.352,4.948c0.586,0.239,1.163,0.475,1.729,0.713  C67.191,67.063,63,73.095,63,80z"></path>
	<path fill="#fe4a5d" d="M80,67c-7.168,0-13,5.832-13,13s5.832,13,13,13s13-5.832,13-13S87.168,67,80,67z M80,91c-6.064,0-11-4.936-11-11  s4.936-11,11-11s11,4.936,11,11S86.064,91,80,91z"></path>
	<path fill="#fe4a5d" d="M86.1,75.314L75.314,86.1c-0.392,0.392-1.022,0.392-1.414,0s-0.392-1.022,0-1.414l10.783-10.783  c0.392-0.392,1.022-0.392,1.414,0C86.488,74.293,86.488,74.925,86.1,75.314z"></path>
</svg>