<?xml version="1.0" encoding="utf-8"?>
<!-- Generator: Adobe Illustrator 16.0.0, SVG Export Plug-In . SVG Version: 6.00 Build 0)  -->
<!DOCTYPE svg PUBLIC "-//W3C//DTD SVG 1.1//EN" "http://www.w3.org/Graphics/SVG/1.1/DTD/svg11.dtd">
<svg version="1.1" id="Layer_1" xmlns="http://www.w3.org/2000/svg" xmlns:xlink="http://www.w3.org/1999/xlink" x="0px" y="0px"
	 width="157.464px" height="48.744px" viewBox="0 0 157.464 48.744" enable-background="new 0 0 157.464 48.744"
	 xml:space="preserve">
<g>
	<g>
		<path fill="#9C27B0" d="M40.32,0l-4.104,19.44h-19.08L21.24,0H10.296L0,48.744h10.944l4.248-20.16h19.08l-4.248,20.16h10.944
			L51.264,0H40.32z M94.752,18.864L96.984,8.28c0.095-0.528,0.18-1.032,0.252-1.512c0.071-0.479,0.107-0.936,0.107-1.368
			c0-1.823-0.552-3.179-1.655-4.068C94.583,0.444,92.783,0,90.288,0h-30.96l-2.016,9.504H83.16c0.815,0,1.392,0.097,1.728,0.288
			c0.336,0.192,0.504,0.576,0.504,1.152c0,0.144-0.012,0.313-0.035,0.504c-0.025,0.192-0.062,0.408-0.108,0.648l-1.729,7.92
			c-0.24,1.008-0.539,1.681-0.899,2.016c-0.36,0.336-1.068,0.504-2.124,0.504H65.52l2.016-9.432H56.592l-7.56,35.64h10.944
			l3.816-18.144H79.56c1.343,0,2.016,0.385,2.016,1.151c0,0.145-0.013,0.301-0.036,0.468c-0.024,0.169-0.061,0.373-0.108,0.612
			L78.12,48.744h10.944l3.527-16.92c0.096-0.288,0.145-0.563,0.145-0.828V30.24c0-1.536-0.529-2.604-1.584-3.204
			c-1.057-0.6-2.353-0.947-3.889-1.044c1.68-0.191,3.216-0.804,4.608-1.836C93.264,23.125,94.224,21.36,94.752,18.864z M146.088,0
			l-21.024,33.912L118.728,0H106.92L96.624,48.744h9.071l6.265-29.592l5.832,29.592h8.567l18.072-29.592l-6.264,29.592h9L157.464,0
			H146.088z"/>
	</g>
</g>
</svg>
